<?xml version="1.0" encoding="UTF-8" standalone="no"?>
<!DOCTYPE svg PUBLIC "-//W3C//DTD SVG 20010904//EN"
              "http://www.w3.org/TR/2001/REC-SVG-20010904/DTD/svg10.dtd">

<svg xmlns="http://www.w3.org/2000/svg"
     width="1.58333in" height="3.38889in"
     viewBox="0 0 114 244">
  <path id="名前なし"
        fill="none" stroke="black" stroke-width="1"
        d="M 32.00,157.27
           C 32.00,157.27 38.63,158.00 38.50,158.00
             38.38,158.00 36.50,170.63 36.50,170.63
             36.50,170.63 28.50,178.00 28.50,178.00
             28.50,178.00 10.75,206.00 10.75,206.00
             10.75,206.00 8.63,215.88 8.63,215.88
             8.63,215.88 10.63,217.88 10.63,217.88
             10.63,217.88 28.25,218.00 28.25,218.00
             28.25,218.00 25.75,224.25 25.75,224.25
             25.75,224.25 21.25,231.50 21.25,231.50
             21.25,231.50 21.63,236.13 21.63,236.13
             21.63,236.13 32.00,241.75 32.00,241.75
             32.00,241.75 52.50,243.25 52.50,243.25
             52.50,243.25 56.25,242.50 56.25,242.50
             56.25,242.50 55.75,238.38 55.75,238.38
             55.75,238.38 41.50,223.00 41.50,223.00
             41.50,223.00 41.25,218.50 41.25,218.50
             41.25,218.50 52.88,219.13 52.88,219.13
             52.88,219.13 55.38,214.13 55.38,214.13
             55.38,214.13 50.75,210.00 50.75,210.00
             50.75,210.00 42.75,209.63 42.75,209.63
             42.75,209.63 45.63,196.50 45.63,196.50
             45.63,196.50 48.13,196.25 48.13,196.25
             48.13,196.25 53.75,177.75 53.75,177.75
             53.75,177.75 63.50,173.13 63.50,173.13
             63.50,173.13 63.75,153.88 63.75,153.88
             63.75,153.88 61.38,149.63 61.38,149.63
             61.38,149.63 62.38,134.75 62.38,134.75
             62.38,134.75 54.13,123.75 54.13,123.75
             54.13,123.75 57.25,114.63 57.25,114.75
             57.25,114.88 49.75,106.13 49.75,106.13
             49.75,106.13 66.38,71.25 66.38,71.25
             66.38,71.25 72.38,65.75 72.38,65.75
             72.38,65.75 78.88,66.63 78.88,66.63
             78.88,66.63 83.00,70.13 83.00,70.13
             83.00,70.13 87.88,69.00 87.88,69.00
             87.88,69.00 96.00,75.75 96.38,76.00
             96.75,76.25 103.50,80.50 103.50,80.50
             103.50,80.50 111.25,80.63 111.25,80.63
             111.25,80.63 112.75,73.50 112.75,73.50
             112.75,73.50 110.25,63.50 110.25,63.50
             110.25,63.50 94.75,42.38 94.75,42.38
             94.75,42.38 90.13,39.25 90.13,39.25
             90.13,39.25 81.13,40.63 81.13,40.63
             81.13,40.63 73.38,35.13 73.38,35.13
             73.38,35.13 73.38,12.50 73.38,12.50
             73.38,12.50 64.25,3.00 64.25,3.00
             64.25,3.00 55.88,1.13 55.88,1.13
             55.88,1.13 45.25,4.13 45.25,4.13
             45.25,4.13 40.00,9.75 40.00,9.75
             40.00,9.75 38.63,19.13 38.63,19.13
             38.63,19.13 38.38,29.63 38.38,29.63
             38.38,29.63 40.63,40.00 40.63,40.00
             40.63,40.00 36.00,45.38 36.00,45.38
             36.00,45.38 31.75,35.13 31.75,35.13
             31.75,35.13 27.25,33.38 27.25,33.38
             27.25,33.38 21.88,35.25 21.88,35.25
             21.88,35.25 17.13,41.25 17.13,41.38
             17.13,41.50 14.50,49.00 14.50,49.00
             14.50,49.00 9.75,55.75 9.75,55.88
             9.75,56.00 3.00,65.25 3.00,65.25
             3.00,65.25 2.00,72.13 2.00,72.13
             2.00,72.13 1.00,82.88 1.00,82.88
             1.00,82.88 5.88,83.88 6.13,83.88
             6.38,83.88 11.38,83.75 11.38,83.88
             11.38,84.00 7.88,100.38 7.88,100.50
             7.88,100.63 1.88,109.38 1.88,109.38
             1.88,109.38 0.63,131.13 0.75,131.38
             0.88,131.63 12.25,142.38 12.25,142.38
             12.25,142.38 29.13,154.13 29.13,154.25
             29.13,154.38 31.88,157.25 31.88,157.25" />
</svg>
