<?xml version="1.0" encoding="UTF-8" standalone="no"?>
<!DOCTYPE svg PUBLIC "-//W3C//DTD SVG 20010904//EN"
              "http://www.w3.org/TR/2001/REC-SVG-20010904/DTD/svg10.dtd">

<svg xmlns="http://www.w3.org/2000/svg"
     width="18.2222in" height="2.38889in"
     viewBox="0 0 1312 172">
  <path id="名前なし"
        fill="none" stroke="black" stroke-width="1"
        d="M 0.00,0.00
           C 0.00,0.00 29.50,85.00 29.50,85.00
             29.50,85.00 70.00,37.00 70.00,37.00
             70.00,37.00 210.00,171.00 210.00,171.00
             210.00,171.00 270.50,55.50 270.50,55.50
             270.50,55.50 390.00,151.50 390.00,151.50
             390.00,151.50 473.50,88.00 473.50,88.00
             473.50,88.00 485.50,159.00 485.50,159.00
             485.50,159.00 555.50,63.50 555.50,63.50
             555.50,63.50 630.50,126.50 630.50,126.50
             630.50,126.50 628.50,55.50 628.50,55.50
             628.50,55.50 703.50,133.50 703.50,133.50
             703.50,133.50 767.50,70.50 767.50,70.50
             767.50,70.50 826.50,100.50 826.50,100.50
             826.50,100.50 897.50,50.00 897.50,50.00
             897.50,50.00 934.00,138.00 934.00,138.00
             934.00,138.00 1037.00,58.00 1037.00,58.00
             1037.00,58.00 1102.50,101.00 1102.50,101.00
             1102.50,101.00 1218.50,30.00 1218.50,30.00
             1218.50,30.00 1275.00,91.00 1275.00,91.00
             1275.00,91.00 1312.00,0.50 1312.00,0.50" />
</svg>
